<svg width="33" height="310" viewBox="0 0 33 310" fill="none" xmlns="http://www.w3.org/2000/svg">
<path d="M25.4717 309.803H0.271678L0.271678 301.163C0.271678 294.683 2.79168 292.163 7.11168 292.163C9.37968 292.163 11.1797 293.243 12.3317 295.367H12.4037C13.4837 292.811 15.4637 291.443 18.1997 291.443C22.9517 291.443 25.4717 293.963 25.4717 300.443V309.803ZM4.23168 301.343L4.23168 305.483H10.7117V301.343C10.7117 297.851 9.55968 296.699 7.47168 296.699C5.38368 296.699 4.23168 297.851 4.23168 301.343ZM14.3117 300.623V305.483H21.5117V300.623C21.5117 297.131 20.3597 295.979 17.9117 295.979C15.4637 295.979 14.3117 297.131 14.3117 300.623ZM25.4717 285.859H7.47168V281.683H20.0717V281.611L7.47168 275.059V269.659H25.4717V273.835H12.8717V273.907L25.4717 280.459L25.4717 285.859ZM25.4717 259.684H11.2877V265.156H7.47168V250.036H11.2877V255.508H25.4717V259.684ZM25.8317 240.832C25.8317 245.08 23.7797 247.132 20.3957 247.132C16.7957 247.132 14.5637 244.9 14.5637 239.032V235.468H13.5917C11.7197 235.468 10.6397 236.548 10.6397 238.852C10.6397 241.12 11.5757 242.056 12.8717 242.236V246.412C9.59568 246.232 7.11168 243.748 7.11168 238.852C7.11168 233.74 9.55968 231.292 13.9517 231.292H25.4717V234.532L23.1317 234.928V235C24.8597 236.404 25.8317 238.492 25.8317 240.832ZM22.3037 240.112C22.3037 237.448 20.4677 235.468 18.0917 235.468H17.6597V238.852C17.6597 241.732 18.6677 242.74 20.2517 242.74C21.4397 242.74 22.3037 241.912 22.3037 240.112ZM25.8317 226.962H22.0157V226.602C22.0157 223.794 18.4517 223.722 13.5917 223.722H7.47168L7.47168 210.042H25.4717V214.218H11.2877V219.546H13.5917C19.1717 219.546 25.8317 219.618 25.8317 226.602V226.962ZM25.4717 203.565H7.47168V199.389H20.0717V199.317L7.47168 192.765V187.365H25.4717V191.541H12.8717V191.613L25.4717 198.165V203.565ZM25.4717 180.882H7.47168V176.706H20.0717V176.634L7.47168 170.082V164.682H25.4717L25.4717 168.858H12.8717V168.93L25.4717 175.482V180.882ZM5.31168 172.782C5.31168 176.058 3.36768 178.002 0.271678 178.002V174.834C2.03568 174.834 2.86368 174.006 2.86368 172.782C2.86368 171.558 2.03568 170.73 0.271678 170.73V167.562C3.36768 167.562 5.31168 169.506 5.31168 172.782ZM25.4717 147.22H0.271678V142.9H10.5317V140.38L0.271678 133.108V128.14L12.2957 136.96L25.4717 127.42V132.676L14.4917 140.38V142.9H25.4717V147.22ZM32.6717 122.129L25.4717 119.393L7.47168 126.701L7.47168 122.165L20.2877 117.233V117.161L7.47168 112.589V108.341L32.6717 117.881V122.129ZM25.8317 98.0895C25.8317 103.381 23.5637 105.649 19.3517 106.009V101.617C21.4037 101.257 22.3757 100.285 22.3757 98.0895C22.3757 95.7855 21.5117 94.9215 20.1797 94.9215C18.8837 94.9215 18.0197 95.7855 18.0197 98.0895V100.069H14.5637V98.0895C14.5637 96.2535 13.7717 95.4615 12.5837 95.4615C11.3597 95.4615 10.5677 96.2535 10.5677 98.0895C10.5677 99.8535 11.4317 100.717 13.2317 101.077V105.469C9.30768 105.109 7.11168 102.913 7.11168 98.0895C7.11168 93.2655 9.30768 91.0695 12.4757 91.0695C14.0597 91.0695 15.3557 91.8615 16.1477 93.3375H16.2197C17.0117 91.5375 18.4517 90.5295 20.2517 90.5295C23.5637 90.5295 25.8317 92.7615 25.8317 98.0895ZM25.4717 85.1168H7.47168V80.9408H12.8717V77.9168C12.8717 72.7688 15.2837 70.3568 19.1717 70.3568C23.0237 70.3568 25.4717 72.8048 25.4717 77.9168V85.1168ZM16.3277 78.0968V80.9408H22.0157V78.0968C22.0157 75.7208 21.0437 74.7488 19.1717 74.7488C17.3357 74.7488 16.3277 75.7568 16.3277 78.0968ZM25.4717 65.6684H7.47168V59.4764L17.2637 55.6604V55.5884L7.47168 51.7724V45.8684H25.4717V50.0444H12.3317V50.1164L21.5117 53.6804V57.8564L12.3317 61.4204V61.4924H25.4717V65.6684ZM25.4717 39.3997H7.47168L7.47168 35.2237H20.0717V35.1517L7.47168 28.5997V23.1997H25.4717V27.3757H12.8717V27.4477L25.4717 33.9997V39.3997ZM25.4717 16.7168H7.47168V12.5408H14.3837V4.69282H7.47168V0.516822H25.4717V4.69282H18.1997V12.5408H25.4717V16.7168Z" fill="black"/>
</svg>
