<svg width="1338" height="229" viewBox="0 0 1338 229" fill="none" xmlns="http://www.w3.org/2000/svg">
<path d="M7.03281 74.2473V16.6473H24.3128V23.4313H14.4568V67.4633H24.3128V74.2473H7.03281ZM59.6402 16.6473V74.2473H42.3602V67.4633H52.2162V23.4313H42.3602V16.6473H59.6402ZM84.7276 45.4473C84.7276 35.3993 89.3356 23.4953 95.8636 16.6473H104.568C97.1436 24.0713 92.5356 35.0153 92.5356 45.4473C92.5356 55.8153 97.0156 66.5033 104.568 74.2473H95.4796C89.2076 67.5913 84.7276 55.6233 84.7276 45.4473ZM141.175 45.4473C141.175 55.4953 136.567 67.3993 130.039 74.2473H121.335C128.759 66.8233 133.367 55.8793 133.367 45.4473C133.367 35.0793 128.887 24.3913 121.335 16.6473H130.423C136.695 23.3033 141.175 35.2713 141.175 45.4473ZM184.182 74.2473H179.894C171.446 74.2473 166.902 69.7033 166.902 61.2553V55.4953C166.902 50.8873 164.79 49.1593 161.782 48.7753V42.1193C164.79 41.7353 166.902 40.0073 166.902 35.4633V29.6393C166.902 21.1913 171.446 16.6473 179.894 16.6473H184.182V23.4313H181.814C176.566 23.4313 174.326 25.6713 174.326 30.8553V36.2953C174.326 40.0713 173.75 43.3353 169.462 45.3833V45.5113C173.75 47.5593 174.326 50.7593 174.326 54.5993V60.0393C174.326 65.2233 176.566 67.4633 181.814 67.4633H184.182V74.2473ZM200.95 16.6473H205.238C213.686 16.6473 218.23 21.1913 218.23 29.6393V35.3993C218.23 40.0073 220.342 41.7353 223.35 42.1193V48.7753C220.342 49.1593 218.23 50.8873 218.23 55.4313V61.2553C218.23 69.7033 213.686 74.2473 205.238 74.2473H200.95V67.4633H203.318C208.566 67.4633 210.806 65.2233 210.806 60.0393V54.5993C210.806 50.8233 211.382 47.5593 215.67 45.5113V45.3833C211.382 43.3353 210.806 40.1353 210.806 36.2953V30.8553C210.806 25.6713 208.566 23.4313 203.318 23.4313H200.95V16.6473ZM259.061 71.5593L244.597 40.1353L258.357 11.2713H263.413L249.909 40.1353L264.117 71.5593H259.061ZM281.509 71.5593L295.717 40.1353L282.213 11.2713H287.269L301.029 40.1353L286.565 71.5593H281.509ZM329.046 38.4713L325.142 36.2313L328.982 29.5113H321.302V25.0313H328.918L325.142 18.3753L329.046 16.0713L332.822 22.7273L336.662 16.0713L340.502 18.3753L336.726 25.0313H344.342V29.5113H336.662L340.502 36.2313L336.598 38.4713L332.822 31.8793L329.046 38.4713ZM387.622 60.4233C381.67 60.4233 377.51 56.2633 377.51 49.4793C377.51 48.0713 377.894 46.0873 378.214 44.1673C379.686 35.9753 385.382 30.4713 392.486 30.4713C395.878 30.4713 398.566 31.4953 400.166 33.7993L400.678 31.0473H407.718L404.454 49.5433C404.326 50.1193 404.262 50.6313 404.262 51.0793C404.262 52.8713 405.286 53.8953 407.526 53.8953C411.622 53.8953 415.59 49.9273 415.59 41.9273C415.59 31.1113 407.014 22.5993 393.19 22.5993C380.326 22.5993 370.534 32.3913 370.534 45.4473C370.534 58.4393 380.326 68.2953 393.062 68.2953C398.886 68.2953 403.942 67.1433 407.782 65.4153V72.3273C404.582 73.6713 398.95 74.8233 393.062 74.8233C376.678 74.8233 363.622 61.7673 363.622 45.4473C363.622 29.1273 376.678 16.0713 393.062 16.0713C410.662 16.0713 422.502 27.8473 422.502 41.9273C422.502 53.9593 416.038 60.4233 407.014 60.4233C402.022 60.4233 398.95 58.5033 397.734 55.4953C395.238 58.6953 391.782 60.4233 387.622 60.4233ZM390.246 53.8953C394.278 53.8953 396.966 50.8873 397.862 46.7273C398.246 44.8073 398.566 42.7593 398.566 41.8633C398.566 38.9193 396.518 36.9993 393.062 36.9993C389.158 36.9993 386.406 39.7513 385.574 44.1673C385.19 46.2793 384.934 48.0713 384.934 49.0313C384.934 51.8473 386.662 53.8953 390.246 53.8953ZM473.471 61.4473L470.015 57.7993C466.687 60.4873 462.463 62.0233 457.791 62.0233C448.767 62.0233 443.391 56.7113 443.391 49.6073C443.391 45.6393 444.671 41.7993 450.751 37.0633C446.399 32.1353 445.631 29.9593 445.631 26.2473C445.631 20.4233 450.111 16.0713 457.151 16.0713C464.319 16.0713 468.671 20.4233 468.671 26.2473C468.671 29.7033 467.519 33.0953 460.991 37.9593L469.119 46.5993C469.759 44.7433 470.079 42.6953 470.079 40.3273H477.631C477.631 44.9993 476.543 49.0313 474.559 52.4233L483.071 61.4473H473.471ZM453.183 26.2473C453.183 28.4873 453.567 29.7673 456.447 33.0313C460.863 29.7033 461.119 28.1033 461.119 26.2473C461.119 24.2633 459.647 22.7273 457.151 22.7273C454.719 22.7273 453.183 24.2633 453.183 26.2473ZM450.943 49.6073C450.943 52.6793 453.631 55.3673 458.111 55.3673C460.607 55.3673 463.167 54.4073 465.215 52.6153L455.295 41.9913C451.327 45.1913 450.943 47.1753 450.943 49.6073ZM47.9288 121.807V116.687H67.2568V121.807H47.9288ZM5.11281 138.447V93.6473H15.9928L33.7848 127.567H33.9128V93.6473H41.5928V138.447H31.3528L12.9208 103.247H12.7928V138.447H5.11281ZM57.5928 114.703C51.3208 114.703 47.3528 110.799 47.3528 104.783V102.991C47.3528 96.9753 51.3208 93.0713 57.5928 93.0713C63.9288 93.0713 67.8328 96.9753 67.8328 102.991V104.783C67.8328 110.799 63.9288 114.703 57.5928 114.703ZM57.5928 109.455C60.2168 109.455 61.8168 107.855 61.8168 104.783V102.991C61.8168 99.9193 60.2168 98.3193 57.5928 98.3193C54.9688 98.3193 53.3688 99.9193 53.3688 102.991V104.783C53.3688 107.855 54.9688 109.455 57.5928 109.455ZM99.3257 151.823C91.3897 151.823 86.9097 147.087 86.2697 141.007H94.3337C94.5257 143.695 96.2537 145.359 99.3257 145.359C102.782 145.359 104.446 143.695 104.446 141.391C104.446 134.479 85.6297 135.375 85.6297 121.999C85.6297 118.095 87.7417 114.767 91.6457 112.207C88.8297 110.159 86.7177 107.535 86.7177 103.311C86.7177 97.4233 91.0697 93.0713 99.3257 93.0713C106.942 93.0713 111.23 97.6793 111.87 103.375H103.87C103.614 101.007 102.142 99.5353 99.3257 99.5353C96.1897 99.5353 94.7177 101.007 94.7177 103.311C94.7177 110.415 113.15 109.519 113.15 122.895C113.15 126.671 111.166 129.935 107.39 132.495C110.27 134.479 112.446 137.167 112.446 141.391C112.446 147.343 107.966 151.823 99.3257 151.823ZM93.4377 121.807C93.4377 125.391 96.9577 127.183 100.99 129.103C103.87 127.375 105.342 125.839 105.342 123.087C105.342 119.503 101.886 117.647 97.9177 115.727C94.9737 117.455 93.4377 119.055 93.4377 121.807ZM142.157 116.623C135.373 116.623 130.957 112.207 130.957 105.935V103.759C130.957 97.4873 135.373 93.0713 142.157 93.0713C148.941 93.0713 153.357 97.4873 153.357 103.759V105.935C153.357 112.207 148.941 116.623 142.157 116.623ZM142.157 111.119C144.973 111.119 146.893 109.199 146.893 105.935V103.759C146.893 100.495 144.973 98.5753 142.157 98.5753C139.277 98.5753 137.357 100.495 137.357 103.759V105.935C137.357 109.199 139.277 111.119 142.157 111.119ZM174.797 139.023C168.013 139.023 163.597 134.607 163.597 128.335V126.159C163.597 119.887 168.013 115.471 174.797 115.471C181.581 115.471 185.997 119.887 185.997 126.159V128.335C185.997 134.607 181.581 139.023 174.797 139.023ZM174.797 133.519C177.613 133.519 179.533 131.599 179.533 128.335V126.159C179.533 122.895 177.613 120.975 174.797 120.975C171.917 120.975 169.997 122.895 169.997 126.159V128.335C169.997 131.599 171.917 133.519 174.797 133.519ZM141.837 138.447L168.077 93.6473H175.117L148.877 138.447H141.837ZM214.678 116.623C207.894 116.623 203.478 112.207 203.478 105.935V103.759C203.478 97.4873 207.894 93.0713 214.678 93.0713C221.462 93.0713 225.878 97.4873 225.878 103.759V105.935C225.878 112.207 221.462 116.623 214.678 116.623ZM214.678 111.119C217.494 111.119 219.414 109.199 219.414 105.935V103.759C219.414 100.495 217.494 98.5753 214.678 98.5753C211.798 98.5753 209.878 100.495 209.878 103.759V105.935C209.878 109.199 211.798 111.119 214.678 111.119ZM247.318 139.023C240.534 139.023 236.118 134.607 236.118 128.335V126.159C236.118 119.887 240.534 115.471 247.318 115.471C254.102 115.471 258.518 119.887 258.518 126.159V128.335C258.518 134.607 254.102 139.023 247.318 139.023ZM272.918 139.023C266.134 139.023 261.718 134.607 261.718 128.335V126.159C261.718 119.887 266.134 115.471 272.918 115.471C279.702 115.471 284.118 119.887 284.118 126.159V128.335C284.118 134.607 279.702 139.023 272.918 139.023ZM247.318 133.519C250.134 133.519 252.054 131.599 252.054 128.335V126.159C252.054 122.895 250.134 120.975 247.318 120.975C244.438 120.975 242.518 122.895 242.518 126.159V128.335C242.518 131.599 244.438 133.519 247.318 133.519ZM272.918 133.519C275.734 133.519 277.654 131.599 277.654 128.335V126.159C277.654 122.895 275.734 120.975 272.918 120.975C270.038 120.975 268.118 122.895 268.118 126.159V128.335C268.118 131.599 270.038 133.519 272.918 133.519ZM214.358 138.447L240.598 93.6473H247.638L221.398 138.447H214.358ZM311.803 114.831C305.531 114.831 300.603 109.967 300.603 103.951C300.603 97.9353 305.531 93.0713 311.803 93.0713C318.139 93.0713 323.003 97.9353 323.003 103.951C323.003 109.967 318.139 114.831 311.803 114.831ZM311.803 109.007C314.811 109.007 317.051 106.767 317.051 103.951C317.051 101.135 314.747 98.8953 311.803 98.8953C308.859 98.8953 306.619 101.135 306.619 103.951C306.619 106.767 308.859 109.007 311.803 109.007ZM350.786 151.247V121.551C344.386 120.207 339.522 114.511 339.522 107.727C339.522 99.9833 345.858 93.6473 353.602 93.6473H379.842V100.431H374.146V151.247H366.53V100.431H358.402V151.247H350.786ZM424.972 127.759L395.532 115.151V107.407L424.972 94.7993V102.287L403.34 111.247L424.972 120.143V127.759ZM395.532 135.183V128.335H424.972V135.183H395.532ZM448.179 127.759V120.335L469.811 111.311L448.179 102.415V94.7993L477.619 107.407V115.151L448.179 127.759ZM448.179 135.183V128.335H477.619V135.183H448.179ZM11.8328 228.247H6.07281V221.463H10.2968C14.1368 221.463 15.6088 219.991 15.6088 215.959V182.103C15.6088 174.487 19.4488 170.647 27.1928 170.647H32.9528V177.431H28.7288C24.8888 177.431 23.4168 178.903 23.4168 182.935V216.791C23.4168 224.407 19.5768 228.247 11.8328 228.247ZM63.4068 216.023C55.5988 216.023 50.5428 211.543 50.5428 203.607C50.5428 202.327 50.5428 201.559 51.1188 198.295C52.7828 188.823 58.7988 182.871 67.0548 182.871C70.8948 182.871 74.3508 184.087 76.6548 186.583V186.455C76.6548 179.735 73.9668 177.175 66.9268 177.175H60.2708V170.647H67.5668C78.1268 170.647 83.1828 175.511 83.1828 186.135C83.1828 188.439 82.9908 190.615 81.9668 196.759C79.8548 209.111 72.8788 216.023 63.4068 216.023ZM58.0948 202.583C58.0948 206.999 60.7828 209.495 64.3668 209.495C69.3588 209.495 72.8148 204.695 73.7748 200.471C73.9028 199.831 74.3508 198.167 74.3508 196.311C74.3508 191.575 71.5988 189.207 67.8868 189.207C63.2788 189.207 59.7588 192.535 58.6708 198.295C58.1588 200.919 58.0948 201.687 58.0948 202.583ZM97.8903 228.247V221.463L109.794 198.999L97.8903 177.431V170.647H130.53V177.431H106.786L118.37 198.615L106.402 221.463H130.53V228.247H97.8903ZM147.19 228.247V170.647H181.75V228.247H174.07V177.431H154.87V228.247H147.19ZM203.49 215.447V189.975H197.73V183.447H236.13V189.975H230.37V204.247C230.37 207.575 231.714 208.919 234.722 208.919H236.77V215.447H233.186C226.658 215.447 222.946 211.799 222.946 205.271V189.975H210.914V215.447H203.49ZM250.538 215.447V208.663H255.658C252.394 205.271 250.538 200.471 250.538 194.711V191.383C250.538 178.007 258.474 170.071 270.378 170.071C282.346 170.071 290.218 177.943 290.218 191.383V194.711C290.218 200.471 288.298 205.271 285.034 208.663H290.218V215.447H273.258V208.663C278.57 207.319 282.154 202.967 282.154 194.711V191.383C282.154 182.103 277.29 177.239 270.378 177.239C263.338 177.239 258.602 181.975 258.602 191.383V194.711C258.602 202.967 262.378 207.319 267.498 208.663V215.447H250.538ZM304.295 215.447L320.295 170.647H329.255L345.255 215.447H304.295ZM314.535 208.919H334.631L324.583 178.263L314.535 208.919Z" fill="black"/>
<path d="M854.911 204.353V175.369H858.803V187.666H862.53L871.473 175.369H876.028L865.676 189.281L876.856 204.353H872.053L862.53 191.227H858.803V204.353H854.911Z" fill="black"/>
<path d="M890.529 204.684C884.65 204.684 881.006 201.04 881.006 194.581V193.422C881.006 187.004 884.691 183.319 890.529 183.319C896.409 183.319 900.052 186.963 900.052 193.422V194.581C900.052 200.999 896.367 204.684 890.529 204.684ZM890.529 201.289C894.007 201.289 896.16 199.136 896.16 194.581V193.422C896.16 188.909 893.966 186.714 890.529 186.714C887.051 186.714 884.898 188.867 884.898 193.422V194.581C884.898 199.094 887.093 201.289 890.529 201.289Z" fill="black"/>
<path d="M904.195 204.684V201.289H904.816C908.045 201.289 908.128 196.9 908.128 190.068V183.65H923.034V204.353H919.307V187.045H911.855V190.068C911.855 197.728 911.772 204.684 904.816 204.684H904.195Z" fill="black"/>
<path d="M930.277 195.285V191.89H944.768V195.285H930.277Z" fill="black"/>
<path d="M952.022 204.353V183.65H960.096C965.479 183.65 967.756 185.927 967.756 189.405C967.756 191.145 966.845 192.635 965.189 193.546V193.629C967.342 194.498 968.584 196.196 968.584 198.349C968.584 202.075 966.307 204.353 960.925 204.353H952.022ZM963.864 189.613C963.864 187.998 962.912 187.045 959.889 187.045H955.749V192.221H959.889C962.912 192.221 963.864 191.269 963.864 189.613ZM964.692 198.142C964.692 196.362 963.699 195.368 960.717 195.368H955.749V200.958H960.717C963.699 200.958 964.692 199.964 964.692 198.142Z" fill="black"/>
<path d="M983.885 204.684C978.005 204.684 974.362 201.04 974.362 194.581V193.422C974.362 187.004 978.047 183.319 983.885 183.319C989.765 183.319 993.408 186.963 993.408 193.422V194.581C993.408 200.999 989.723 204.684 983.885 204.684ZM983.885 201.289C987.363 201.289 989.516 199.136 989.516 194.581V193.422C989.516 188.909 987.322 186.714 983.885 186.714C980.407 186.714 978.254 188.867 978.254 193.422V194.581C978.254 199.094 980.448 201.289 983.885 201.289Z" fill="black"/>
<path d="M1012.86 204.353V183.65H1026.73V187.045H1016.59V204.353H1012.86Z" fill="black"/>
<path d="M1028.78 204.684V201.289H1029.4C1032.63 201.289 1032.72 196.9 1032.72 190.068V183.65H1047.62V204.353H1043.89V187.045H1036.44V190.068C1036.44 197.728 1036.36 204.684 1029.4 204.684H1028.78Z" fill="black"/>
<path d="M1055.9 204.353V183.65H1059.63V199.798H1059.71L1068.73 183.65H1073.7V204.353H1069.98V188.205H1069.89L1060.87 204.353H1055.9Z" fill="black"/>
<path d="M1091.51 212.634V204.684H1090.06C1084.47 204.684 1080.75 200.958 1080.75 194.581V193.422C1080.75 187.128 1084.55 183.319 1090.06 183.319H1091.51V175.369H1095.24V183.319H1096.69C1102.28 183.319 1106 187.045 1106 193.422V194.581C1106 200.875 1102.19 204.684 1096.69 204.684H1095.24V212.634H1091.51ZM1102.11 193.422C1102.11 188.95 1099.87 186.714 1096.69 186.714H1095.24V201.289H1096.69C1099.96 201.289 1102.11 199.136 1102.11 194.581V193.422ZM1084.64 194.581C1084.64 199.053 1086.87 201.289 1090.06 201.289H1091.51V186.714H1090.06C1086.79 186.714 1084.64 188.867 1084.64 193.422V194.581Z" fill="black"/>
<path d="M1121.33 204.684C1115.45 204.684 1111.81 201.04 1111.81 194.581V193.422C1111.81 187.004 1115.49 183.319 1121.33 183.319C1127.21 183.319 1130.85 186.963 1130.85 193.422V194.581C1130.85 200.999 1127.17 204.684 1121.33 204.684ZM1121.33 201.289C1124.81 201.289 1126.96 199.136 1126.96 194.581V193.422C1126.96 188.909 1124.77 186.714 1121.33 186.714C1117.85 186.714 1115.7 188.867 1115.7 193.422V194.581C1115.7 199.094 1117.89 201.289 1121.33 201.289Z" fill="black"/>
<path d="M1137.88 204.353V183.65H1145.96C1151.34 183.65 1153.62 185.927 1153.62 189.405C1153.62 191.145 1152.71 192.635 1151.05 193.546V193.629C1153.2 194.498 1154.45 196.196 1154.45 198.349C1154.45 202.075 1152.17 204.353 1146.79 204.353H1137.88ZM1149.73 189.613C1149.73 187.998 1148.77 187.045 1145.75 187.045H1141.61V192.221H1145.75C1148.77 192.221 1149.73 191.269 1149.73 189.613ZM1150.55 198.142C1150.55 196.362 1149.56 195.368 1146.58 195.368H1141.61V200.958H1146.58C1149.56 200.958 1150.55 199.964 1150.55 198.142Z" fill="black"/>
<path d="M1211.1 214.367V177.503L1202.14 183.455V175.583L1211.1 169.567H1218.78V214.367H1211.1ZM1229.32 214.367V207.583L1243.78 193.695C1249.48 188.255 1251.34 185.695 1251.34 182.687C1251.34 178.719 1248.71 176.095 1244.36 176.095C1240.01 176.095 1237.38 178.719 1237.38 183.327H1229.32C1229.32 174.559 1235.02 168.927 1244.36 168.927C1253.77 168.927 1259.4 174.559 1259.4 182.687C1259.4 187.743 1256.26 192.159 1249.42 198.431L1239.37 207.583H1259.4V214.367H1229.32ZM1283.71 215.007C1275.96 215.007 1271.23 210.271 1269.95 203.807H1277.82C1278.78 205.983 1280.64 207.839 1284.03 207.839C1289.02 207.839 1292.28 204.703 1292.6 195.743C1290.24 198.239 1287.04 199.583 1283.39 199.583C1274.24 199.583 1268.67 194.015 1268.67 184.671V183.903C1268.67 175.071 1274.81 168.927 1284.03 168.927C1293.76 168.927 1300.03 175.199 1300.03 188.383V191.711C1300.03 208.607 1293.63 215.007 1283.71 215.007ZM1276.73 184.671C1276.73 189.471 1279.68 192.415 1284.03 192.415C1289.02 192.415 1291.96 189.471 1291.96 184.671V183.903C1291.96 179.039 1289.02 176.095 1284.03 176.095C1279.68 176.095 1276.73 179.039 1276.73 183.903V184.671ZM1312.81 214.367L1328.43 176.351H1307.37V169.567H1336.81V176.351L1321.39 214.367H1312.81Z" fill="black"/>
</svg>
