<svg width="258" height="229" viewBox="0 0 258 229" fill="none" xmlns="http://www.w3.org/2000/svg">
<path d="M27.4661 125.211C20.5176 129.069 13.3131 127.009 8.63251 118.579L7.747 116.985C3.29836 108.973 5.37538 101.709 12.2859 97.8722C18.5509 94.3934 24.4563 96.0821 27.9565 100.596L23.0205 103.337C20.7852 101.101 17.8325 100.257 14.6051 102.049C10.5803 104.284 9.34758 108.595 12.5312 114.328L13.4167 115.923C16.769 121.96 21.198 123.227 25.1469 121.034C28.2984 119.284 29.1427 116.331 28.2154 112.872L33.2274 110.089C35.4408 115.864 33.7691 121.711 27.4661 125.211Z" fill="black"/>
<path d="M53.8522 110.559C48.1567 113.722 42.8419 112.202 39.4896 106.165L39.0258 105.329C35.7156 99.3681 37.2692 93.9351 42.8887 90.8148C48.5842 87.6522 53.899 89.172 57.2513 95.2092L57.7152 96.0445C61.0253 102.006 59.4717 107.439 53.8522 110.559ZM51.6173 106.534C54.3891 104.995 55.149 102.338 53.0828 98.6167L52.619 97.7814C50.595 94.1363 47.8195 93.3426 45.1236 94.8396C42.3518 96.3787 41.5919 99.0361 43.6581 102.757L44.1219 103.592C46.146 107.238 48.9215 108.031 51.6173 106.534Z" fill="black"/>
<path d="M70.3407 100.907L59.7989 81.9218L63.2162 80.0243L64.7555 81.9018L64.8314 81.8596C65.4605 79.3245 66.9163 77.473 69.2704 76.1658C73.8268 73.6357 78.2558 74.9022 81.2075 80.218L87.4272 91.4191L83.0227 93.8648L76.9084 82.8535C75.3061 79.9678 73.062 79.3262 70.556 80.7177C67.9361 82.1724 67.1762 84.8299 68.631 87.4498L74.7452 98.461L70.3407 100.907Z" fill="black"/>
<path d="M103.382 82.5599C97.1549 86.0176 94.2706 80.9127 93.6381 79.7737L88.81 71.0785L85.3927 72.9761L83.1578 68.9513L86.5751 67.0537L83.6234 61.738L88.0279 59.2923L90.9796 64.608L95.6879 61.9937L97.9227 66.0185L93.2145 68.6329L97.7053 76.7204C98.1691 77.5558 99.3245 79.5471 101.944 78.0923L104.375 76.743L106.609 80.7678L103.382 82.5599Z" fill="black"/>
<path d="M121.642 72.9175C115.946 76.08 110.632 74.5602 107.279 68.523L106.815 67.6877C103.484 61.6884 105.021 56.3146 110.488 53.2785C115.994 50.2214 121.309 51.7412 124.767 57.9682L125.652 59.563L112.249 67.0055C114.311 70.1824 116.538 70.8831 119.386 69.3018C121.626 68.0579 122.626 66.4594 122.255 64.6285L126.812 62.0985C128.11 66.4943 126.198 70.3874 121.642 72.9175ZM112.555 56.9996C109.897 58.4754 109.209 60.5465 110.474 63.719L119.359 58.7854C117.372 56.0135 115.289 55.4816 112.555 56.9996Z" fill="black"/>
<path d="M137.76 63.471L127.218 44.4861L130.635 42.5885L132.174 44.466L132.25 44.4239C132.879 41.8888 134.335 40.0372 136.689 38.73C141.246 36.2 145.675 37.4665 148.626 42.7823L154.846 53.9834L150.441 56.4291L144.327 45.4178C142.725 42.5321 140.481 41.8904 137.975 43.2819C135.355 44.7367 134.595 47.3941 136.05 50.014L142.164 61.0253L137.76 63.471Z" fill="black"/>
<path d="M170.801 45.1241C164.574 48.5819 161.689 43.477 161.057 42.3379L156.229 33.6428L152.811 35.5403L150.577 31.5155L153.994 29.618L151.042 24.3022L155.447 21.8565L158.398 27.1723L163.107 24.5579L165.342 28.5827L160.633 31.1971L165.124 39.2847C165.588 40.12 166.743 42.1114 169.363 40.6566L171.793 39.3072L174.028 43.332L170.801 45.1241Z" fill="black"/>
<path d="M188.28 35.8654C182.699 38.9647 178.978 37.9009 176.364 34.0869L180.996 31.5147C182.43 33.2024 183.788 33.5908 186.066 32.3257C188.42 31.0186 188.775 29.7784 188.1 28.5634C185.95 24.6905 176.49 33.4204 172.442 26.1302C170.713 23.0167 171.777 19.2963 176.789 16.5133C182.029 13.6037 185.69 14.6507 188.115 18.1229L183.483 20.6951C182.218 19.3112 180.978 18.9566 178.813 20.1584C176.763 21.2969 176.442 22.4189 177.054 23.52C179.056 27.1272 188.432 18.2453 192.712 25.9532C194.504 29.1807 193.406 33.0192 188.28 35.8654Z" fill="black"/>
<path d="M118.857 201.257L102.86 172.448L112.532 167.078C121.339 162.187 128.764 164.311 133.472 172.789L134.523 174.682C139.414 183.489 137.254 191.042 128.529 195.887L118.857 201.257ZM121.282 193.988L125.809 191.474C131.777 188.161 132.948 184.064 129.338 177.561L128.286 175.668C124.95 169.659 120.725 168.451 114.84 171.719L110.313 174.233L121.282 193.988Z" fill="black"/>
<path d="M150.946 183.439L134.949 154.63L141.946 150.745L165.499 166.205L165.581 166.159L153.469 144.346L158.408 141.604L174.405 170.413L167.82 174.07L143.398 158.016L143.316 158.061L155.885 180.697L150.946 183.439Z" fill="black"/>
<path d="M181.812 166.301L176.104 131.778L181.866 128.579L208.152 151.675L202.884 154.6L196.497 148.723L185.179 155.008L186.75 163.558L181.812 166.301ZM184.188 149.635L192.502 145.019L181.572 134.934L181.489 134.98L184.188 149.635Z" fill="black"/>
<path d="M39.4379 174.057L28.3918 154.163L31.9726 152.175L33.6959 154.341L33.7755 154.297C34.2932 151.667 35.77 149.546 37.9583 148.331C40.6637 146.829 43.4705 146.728 45.9367 148.169C46.1804 145.327 47.7854 142.874 50.5704 141.328C55.0663 138.831 59.6673 140.181 62.8707 145.95L69.2774 157.487L64.6622 160.05L58.2555 148.512C56.5544 145.449 54.2649 144.794 51.9176 146.097C49.5304 147.423 48.7342 150.207 50.2585 152.953L56.6652 164.491L52.05 167.053L45.6433 155.515C43.9643 152.492 41.613 151.819 39.3054 153.101C36.9182 154.426 36.122 157.211 37.6463 159.956L44.053 171.494L39.4379 174.057Z" fill="black"/>
<path d="M84.0202 149.822C79.3255 152.429 75.7984 151.42 73.7218 147.68C71.5126 143.702 72.6096 139.865 79.0947 136.264L83.0335 134.077L82.437 133.003C81.2883 130.934 79.4319 130.403 76.8856 131.817C74.3791 133.209 73.919 134.818 74.5154 136.36L69.9002 138.923C68.0888 135.192 69.3097 130.922 74.7206 127.918C80.3702 124.781 84.5779 125.984 87.2731 130.838L94.3426 143.569L90.7619 145.558L88.8882 143.215L88.8087 143.259C88.3174 146.03 86.6063 148.386 84.0202 149.822ZM82.6509 145.481C85.5951 143.846 86.6566 140.602 85.1986 137.976L84.9334 137.499L81.1936 139.575C78.0107 141.343 77.5152 143.075 78.4873 144.826C79.2163 146.139 80.6616 146.585 82.6509 145.481Z" fill="black"/>
<path d="M109.612 145.501L108.218 135.865L89.0951 120.457L94.1081 117.673L107.424 128.81L107.503 128.766L104.691 111.797L109.386 109.19L114.307 142.894L109.612 145.501Z" fill="black"/>
<path d="M146.195 114.777L127.669 99.0378L132.682 96.2542L146.028 108.103L146.108 108.059L142.867 90.5986L147.562 87.9917L151.526 111.817L146.195 114.777Z" fill="black"/>
<path d="M170.57 101.763C165.876 104.37 162.349 103.361 160.272 99.6213C158.063 95.6427 159.16 91.8062 165.645 88.2052L169.584 86.0181L168.987 84.9439C167.838 82.875 165.982 82.3442 163.436 83.7581C160.929 85.1499 160.469 86.7587 161.066 88.3015L156.45 90.8642C154.639 87.1332 155.86 82.8636 161.271 79.8591C166.92 76.722 171.128 77.9252 173.823 82.7791L180.893 95.5106L177.312 97.4989L175.438 95.1558L175.359 95.2C174.868 97.9713 173.157 100.327 170.57 101.763ZM169.201 97.422C172.145 95.7872 173.207 92.543 171.749 89.9172L171.484 89.4397L167.744 91.5164C164.561 93.2837 164.065 95.0163 165.037 96.7669C165.767 98.0799 167.212 98.5266 169.201 97.422Z" fill="black"/>
<path d="M189.856 90.5339L178.81 70.6408L182.39 68.6525L184.114 70.8188L184.193 70.7746C184.702 67.9414 186.068 66.0897 188.734 64.6095L190.524 63.6154L192.866 67.8327L190.479 69.1582C187.296 70.9256 186.518 73.6482 188.064 76.4332L194.471 87.9712L189.856 90.5339Z" fill="black"/>
<path d="M216.227 86.3014L214.832 76.6652L195.709 61.2569L200.722 58.4733L214.038 69.6105L214.117 69.5663L211.305 52.5968L216 49.9899L220.921 83.6946L216.227 86.3014Z" fill="black"/>
<path d="M70.4198 228.155L58.6487 206.956L63.5669 204.226L75.3379 225.424L70.4198 228.155ZM59.6953 203.047C57.9146 204.036 55.7386 203.414 54.7498 201.633C53.761 199.852 54.3832 197.676 56.1639 196.687C57.9446 195.699 60.1207 196.321 61.1094 198.102C62.0982 199.882 61.476 202.058 59.6953 203.047Z" fill="black"/>
<path d="M85.2954 219.895L73.5243 198.696L77.3401 196.578L79.0589 198.674L79.1437 198.627C79.8461 195.796 81.4716 193.729 84.1003 192.269C89.188 189.444 94.1334 190.858 97.4293 196.794L104.374 209.301L99.4562 212.032L92.6289 199.737C90.8397 196.515 88.334 195.798 85.5358 197.352C82.6104 198.976 81.7619 201.944 83.3863 204.869L90.2135 217.164L85.2954 219.895Z" fill="black"/>
</svg>
