<svg width="704" height="27" viewBox="0 0 704 27" fill="none" xmlns="http://www.w3.org/2000/svg">
<path d="M0.402344 26.1506V0.487706H9.38436C16.0201 0.487706 19.0996 3.56725 19.0996 8.95647C19.0996 14.2724 15.8734 17.4986 9.38436 17.4986H4.8017V26.1506H0.402344ZM9.20106 4.52045H4.8017V13.4658H9.20106C12.9405 13.4658 14.4803 11.926 14.4803 8.95647C14.4803 6.20687 12.7939 4.52045 9.20106 4.52045Z" fill="black"/>
<path d="M24.2179 26.1506V0.487706H33.1999C39.8356 0.487706 42.9151 3.56726 42.9151 8.51653C42.9151 11.8527 41.3387 14.4557 38.1858 15.7021L43.6484 26.1506H38.7357L34.0431 16.5087C33.5298 16.5454 33.4932 16.5454 33.1999 16.5454H28.6172V26.1506H24.2179ZM28.6172 12.5126H33.0166C36.756 12.5126 38.2958 10.9728 38.2958 8.51653C38.2958 6.20687 36.6094 4.52045 33.0166 4.52045H28.6172V12.5126Z" fill="black"/>
<path d="M59.2337 26.5172C52.3414 26.5172 47.8687 22.0446 47.8687 13.9057V12.366C47.8687 4.63043 52.378 0.121094 59.2337 0.121094C66.126 0.121094 70.5987 4.59377 70.5987 12.366V13.9057C70.5987 22.0079 66.0894 26.5172 59.2337 26.5172ZM59.2337 22.4845C63.3031 22.4845 65.9794 19.8449 65.9794 13.9057V12.366C65.9794 6.90343 63.2298 4.15384 59.2337 4.15384C55.1276 4.15384 52.488 6.79345 52.488 12.366V13.9057C52.488 19.7716 55.201 22.4845 59.2337 22.4845Z" fill="black"/>
<path d="M76.6464 26.1506V0.487706H85.2618C93.1073 0.487706 97.36 4.74042 97.36 12.2926V13.9791C97.36 21.8246 93.034 26.1506 85.2618 26.1506H76.6464ZM81.0457 22.1179H85.0785C90.3944 22.1179 92.7407 19.7716 92.7407 13.9791V12.2926C92.7407 6.94009 90.3211 4.52045 85.0785 4.52045H81.0457V22.1179Z" fill="black"/>
<path d="M113.48 26.5172C107.1 26.5172 103.214 22.6311 103.214 15.8855V0.487706H107.614V15.7021C107.614 20.2115 109.887 22.4845 113.48 22.4845C117.146 22.4845 119.345 20.2848 119.345 15.7021V0.487706H123.745V15.8855C123.745 22.5578 119.785 26.5172 113.48 26.5172Z" fill="black"/>
<path d="M140.808 26.5172C134.099 26.5172 129.626 22.0446 129.626 13.9057V12.366C129.626 4.63043 134.136 0.121094 140.808 0.121094C146.857 0.121094 150.523 3.78722 151.256 8.55319H146.49C145.757 5.9869 143.924 4.15384 140.808 4.15384C136.922 4.15384 134.246 6.83011 134.246 12.366V13.9057C134.246 19.7349 136.995 22.4845 140.808 22.4845C143.851 22.4845 145.684 20.6514 146.417 17.7185H151.256C150.523 22.8878 146.894 26.5172 140.808 26.5172Z" fill="black"/>
<path d="M161.692 26.1506V4.52045H153.81V0.487706H173.974V4.52045H166.091V26.1506H161.692Z" fill="black"/>
<path d="M190.107 26.1506V0.487706H194.507V26.1506H190.107Z" fill="black"/>
<path d="M201.639 26.1506V0.487706H207.871L218.063 19.9182H218.136V0.487706H222.535V26.1506H216.67L206.111 5.9869H206.038V26.1506H201.639Z" fill="black"/>
<path d="M238.482 26.5172C231.993 26.5172 228.766 23.291 228.4 17.7185H233.092C233.349 20.9447 234.962 22.4845 238.482 22.4845C241.818 22.4845 243.211 21.128 243.211 19.1116C243.211 13.4291 228.766 17.1319 228.766 7.30671C228.766 3.23731 231.883 0.121094 237.932 0.121094C244.201 0.121094 247.28 3.20064 247.647 8.55319H242.954C242.698 5.62029 241.231 4.15384 237.932 4.15384C234.706 4.15384 233.386 5.47364 233.386 7.34337C233.386 13.3192 247.83 9.10311 247.83 19.1483C247.83 23.4743 244.787 26.5172 238.482 26.5172Z" fill="black"/>
<path d="M259.038 26.1506V4.52045H251.156V0.487706H271.319V4.52045H263.437V26.1506H259.038Z" fill="black"/>
<path d="M276.271 26.1506V0.487706H285.253C291.889 0.487706 294.969 3.56726 294.969 8.51653C294.969 11.8527 293.392 14.4557 290.239 15.7021L295.702 26.1506H290.789L286.097 16.5087C285.583 16.5454 285.547 16.5454 285.253 16.5454H280.671V26.1506H276.271ZM280.671 12.5126H285.07C288.81 12.5126 290.349 10.9728 290.349 8.51653C290.349 6.20687 288.663 4.52045 285.07 4.52045H280.671V12.5126Z" fill="black"/>
<path d="M310.742 26.5172C304.363 26.5172 300.477 22.6311 300.477 15.8855V0.487706H304.876V15.7021C304.876 20.2115 307.149 22.4845 310.742 22.4845C314.408 22.4845 316.608 20.2848 316.608 15.7021V0.487706H321.007V15.8855C321.007 22.5578 317.047 26.5172 310.742 26.5172Z" fill="black"/>
<path d="M338.07 26.5172C331.361 26.5172 326.888 22.0446 326.888 13.9057V12.366C326.888 4.63043 331.398 0.121094 338.07 0.121094C344.119 0.121094 347.785 3.78722 348.519 8.55319H343.753C343.019 5.9869 341.186 4.15384 338.07 4.15384C334.184 4.15384 331.508 6.83011 331.508 12.366V13.9057C331.508 19.7349 334.257 22.4845 338.07 22.4845C341.113 22.4845 342.946 20.6514 343.679 17.7185H348.519C347.785 22.8878 344.156 26.5172 338.07 26.5172Z" fill="black"/>
<path d="M358.954 26.1506V4.52045H351.072V0.487706H371.236V4.52045H363.354V26.1506H358.954Z" fill="black"/>
<path d="M376.371 26.1506V0.487706H380.77V26.1506H376.371Z" fill="black"/>
<path d="M398.351 26.5172C391.458 26.5172 386.986 22.0446 386.986 13.9057V12.366C386.986 4.63043 391.495 0.121094 398.351 0.121094C405.243 0.121094 409.716 4.59377 409.716 12.366V13.9057C409.716 22.0079 405.206 26.5172 398.351 26.5172ZM398.351 22.4845C402.42 22.4845 405.096 19.8449 405.096 13.9057V12.366C405.096 6.90343 402.347 4.15384 398.351 4.15384C394.245 4.15384 391.605 6.79345 391.605 12.366V13.9057C391.605 19.7716 394.318 22.4845 398.351 22.4845Z" fill="black"/>
<path d="M415.763 26.1506V0.487706H421.996L432.188 19.9182H432.261V0.487706H436.66V26.1506H430.795L420.236 5.9869H420.163V26.1506H415.763Z" fill="black"/>
<path d="M452.607 26.5172C446.118 26.5172 442.891 23.291 442.525 17.7185H447.217C447.474 20.9447 449.087 22.4845 452.607 22.4845C455.943 22.4845 457.336 21.128 457.336 19.1116C457.336 13.4291 442.891 17.1319 442.891 7.30671C442.891 3.23731 446.008 0.121094 452.057 0.121094C458.326 0.121094 461.405 3.20064 461.772 8.55319H457.079C456.823 5.62029 455.356 4.15384 452.057 4.15384C448.83 4.15384 447.511 5.47364 447.511 7.34337C447.511 13.3192 461.955 9.10311 461.955 19.1483C461.955 23.4743 458.912 26.5172 452.607 26.5172Z" fill="black"/>
<path d="M476.633 26.1506L485.798 0.487706H490.931L500.096 26.1506H495.403L493.277 19.7349H483.195L481.032 26.1506H476.633ZM484.551 15.7021H491.957L488.328 4.70376H488.254L484.551 15.7021Z" fill="black"/>
<path d="M504.868 26.1506V0.487706H511.1L521.292 19.9182H521.365V0.487706H525.764V26.1506H519.899L509.34 5.9869H509.267V26.1506H504.868Z" fill="black"/>
<path d="M532.729 26.1506V0.487706H541.344C549.19 0.487706 553.442 4.74042 553.442 12.2926V13.9791C553.442 21.8246 549.116 26.1506 541.344 26.1506H532.729ZM537.128 22.1179H541.161C546.477 22.1179 548.823 19.7716 548.823 13.9791V12.2926C548.823 6.94009 546.403 4.52045 541.161 4.52045H537.128V22.1179Z" fill="black"/>
<path d="M580.744 26.5172C574.035 26.5172 569.562 22.0446 569.562 13.9424V12.3293C569.562 4.63043 574.071 0.121094 580.744 0.121094C586.976 0.121094 590.642 3.78722 591.375 8.55319H586.609C585.876 6.06022 583.97 4.15384 580.744 4.15384C576.857 4.15384 574.181 6.83011 574.181 12.3293V13.9424C574.181 19.7349 576.931 22.4845 580.744 22.4845C584.74 22.4845 586.903 20.7981 587.306 16.2154H580.744V12.5493H591.559V14.0524C591.559 22.4478 587.489 26.5172 580.744 26.5172Z" fill="black"/>
<path d="M607.705 26.5172C601.326 26.5172 597.44 22.6311 597.44 15.8855V0.487706H601.84V15.7021C601.84 20.2115 604.113 22.4845 607.705 22.4845C611.372 22.4845 613.571 20.2848 613.571 15.7021V0.487706H617.971V15.8855C617.971 22.5578 614.011 26.5172 607.705 26.5172Z" fill="black"/>
<path d="M624.952 26.1506V0.487706H629.351V26.1506H624.952Z" fill="black"/>
<path d="M636.483 26.1506V0.487706H645.099C652.944 0.487706 657.197 4.74042 657.197 12.2926V13.9791C657.197 21.8246 652.871 26.1506 645.099 26.1506H636.483ZM640.882 22.1179H644.915C650.231 22.1179 652.577 19.7716 652.577 13.9791V12.2926C652.577 6.94009 650.158 4.52045 644.915 4.52045H640.882V22.1179Z" fill="black"/>
<path d="M663.234 26.1506V0.487706H679.732V4.52045H667.634V10.9362H677.532V14.9689H667.634V22.1179H679.732V26.1506H663.234Z" fill="black"/>
<path d="M694.206 26.5172C687.717 26.5172 684.491 23.291 684.124 17.7185H688.817C689.073 20.9447 690.687 22.4845 694.206 22.4845C697.542 22.4845 698.935 21.128 698.935 19.1116C698.935 13.4291 684.491 17.1319 684.491 7.30671C684.491 3.23731 687.607 0.121094 693.656 0.121094C699.925 0.121094 703.005 3.20064 703.371 8.55319H698.679C698.422 5.62029 696.956 4.15384 693.656 4.15384C690.43 4.15384 689.11 5.47364 689.11 7.34337C689.11 13.3192 703.555 9.10311 703.555 19.1483C703.555 23.4743 700.512 26.5172 694.206 26.5172Z" fill="black"/>
</svg>
