<svg width="1337" height="242" viewBox="0 0 1337 242" fill="none" xmlns="http://www.w3.org/2000/svg">
<path d="M0.632812 45.555L16.5976 0.853437H25.538L41.5028 45.555H33.3288L29.625 34.3796H12.0636L8.29593 45.555H0.632812ZM14.4264 27.3551H27.326L21.0039 8.19726H20.8762L14.4264 27.3551Z" fill="black"/>
<path d="M64.5021 45.555V0.853437H93.8774V7.87797H72.1653V17.2014H80.7863C91.7062 17.2014 97.0704 22.5656 97.0704 31.3782C97.0704 40.0631 91.5785 45.555 80.7863 45.555H64.5021ZM72.1653 38.5305H80.467C86.2143 38.5305 89.0241 35.7206 89.0241 31.3782C89.0241 27.1635 86.0866 24.226 80.467 24.226H72.1653V38.5305Z" fill="black"/>
<path d="M121.359 45.555V0.853437H136.686C148.18 0.853437 152.65 5.32359 152.65 12.9867C152.65 17.0099 150.735 20.2028 146.967 22.2463V22.374C151.501 24.2898 153.928 27.8021 153.928 32.6554C153.928 41.0848 149.458 45.555 137.963 45.555H121.359ZM136.366 7.87797H129.023V19.3726H136.366C142.561 19.3726 144.604 17.3291 144.604 13.6253C144.604 9.92146 142.561 7.87797 136.366 7.87797ZM137.644 25.7586H129.023V38.5305H137.644C143.838 38.5305 145.881 36.487 145.881 32.1445C145.881 27.8021 143.838 25.7586 137.644 25.7586Z" fill="black"/>
<path d="M178.84 45.555V0.853437H206.3V7.87797H186.503V45.555H178.84Z" fill="black"/>
<path d="M222.27 55.1339V38.5305H225.973C229.486 32.7831 230.252 28.9515 230.252 15.5411V0.853437H260.905V38.5305H264.736V55.1339H257.456V45.555H229.55V55.1339H222.27ZM234.658 38.5305H253.241V7.87797H237.915V15.5411C237.915 28.1852 237.085 33.8049 234.658 38.5305Z" fill="black"/>
<path d="M288.377 45.555V0.853437H317.113V7.87797H296.04V19.0534H313.282V26.0779H296.04V38.5305H317.113V45.555H288.377Z" fill="black"/>
<path d="M338.479 45.555L352.272 22.5018L339.437 0.853437H348.121L358.594 19.1811H363.065V0.853437H370.728V19.1811H375.198L385.798 0.853437H394.356L381.52 22.2463L395.313 45.555H386.373L375.198 25.9502H370.728V45.555H363.065V25.9502H358.594L347.291 45.555H338.479Z" fill="black"/>
<path d="M430.748 46.1936C420.02 46.1936 414.464 40.6378 413.825 30.8673H421.871C422.51 36.487 425.128 39.169 430.748 39.169C436.368 39.169 438.986 36.487 438.986 32.4638C438.986 28.5684 436.368 25.9502 430.748 25.9502H425.32V19.1811H430.748C435.793 19.1811 438.028 16.946 438.028 13.306C438.028 9.47445 435.793 7.23937 430.748 7.23937C425.703 7.23937 423.468 9.47445 422.829 14.9025H414.783C415.422 5.51517 420.722 0.214844 430.748 0.214844C440.774 0.214844 446.074 5.51517 446.074 12.6674C446.074 17.0099 444.286 20.2667 440.646 22.374V22.5018C444.861 24.7368 447.032 28.313 447.032 33.1024C447.032 40.6378 441.476 46.1936 430.748 46.1936Z" fill="black"/>
<path d="M471.92 45.555V0.853437H479.583V35.9761H479.711L497.974 0.853437H508.32V45.555H500.656V10.4323H500.529L482.265 45.555H471.92Z" fill="black"/>
<path d="M4.46437 107.818V63.1163H12.1275V98.2389H12.2552L30.519 63.1163H40.8642V107.818H33.2011V72.6952H33.0734L14.8096 107.818H4.46437ZM22.6643 59.2847C16.2145 59.2847 12.7661 55.8363 12.7661 50.3444H18.5134C18.5134 53.2181 20.1099 54.8146 22.6643 54.8146C25.2187 54.8146 26.8151 53.2181 26.8151 50.3444H32.5625C32.5625 55.8363 29.1141 59.2847 22.6643 59.2847Z" fill="black"/>
<path d="M67.6826 107.818V63.1163H75.3457V81.3162H79.8159L92.7155 63.1163H101.528L85.8825 84.4453L102.805 107.818H93.4818L79.8159 88.3407H75.3457V107.818H67.6826Z" fill="black"/>
<path d="M123.21 108.456V101.432H123.849C130.746 101.432 130.873 93.4495 130.873 83.5513V63.1163H161.526V107.818H153.863V70.1408H138.537V83.5513C138.537 95.6846 137.77 108.456 123.849 108.456H123.21Z" fill="black"/>
<path d="M188.319 107.818V63.1163H199.942L209.904 87.8937H210.032L219.994 63.1163H231.105V107.818H223.442V71.7373H223.314L213.544 96.0039H205.881L196.11 71.7373H195.983V107.818H188.319Z" fill="black"/>
<path d="M257.899 107.818V63.1163H265.562V81.3162H286.635V63.1163H294.298V107.818H286.635V88.3407H265.562V107.818H257.899Z" fill="black"/>
<path d="M339.317 108.456C327.311 108.456 319.52 100.666 319.52 86.4888V83.8067C319.52 70.3324 327.375 62.4777 339.317 62.4777C351.322 62.4777 359.113 70.2685 359.113 83.8067V86.4888C359.113 100.602 351.259 108.456 339.317 108.456ZM339.317 101.432C346.405 101.432 351.067 96.834 351.067 86.4888V83.8067C351.067 74.2917 346.277 69.5022 339.317 69.5022C332.165 69.5022 327.567 74.1001 327.567 83.8067V86.4888C327.567 96.7063 332.292 101.432 339.317 101.432Z" fill="black"/>
<path d="M384.335 107.818V63.1163H420.096V107.818H412.433V70.1408H391.998V107.818H384.335Z" fill="black"/>
<path d="M446.93 107.818V63.1163H462.575C474.134 63.1163 479.498 68.4805 479.498 77.8678C479.498 87.1274 473.878 92.747 462.575 92.747H454.593V107.818H446.93ZM462.256 70.1408H454.593V85.7225H462.256C468.77 85.7225 471.452 83.0404 471.452 77.8678C471.452 73.0784 468.514 70.1408 462.256 70.1408Z" fill="black"/>
<path d="M22.345 170.719C10.6587 170.719 2.86789 162.928 2.86789 148.752V146.07C2.86789 132.595 10.7226 124.741 22.345 124.741C32.8818 124.741 39.2677 131.126 40.5449 139.428H32.2432C30.966 134.958 27.773 131.765 22.345 131.765C15.5759 131.765 10.9142 136.427 10.9142 146.07V148.752C10.9142 158.905 15.7036 163.695 22.345 163.695C27.6453 163.695 30.8383 160.502 32.1155 155.393H40.5449C39.2677 164.397 32.9456 170.719 22.345 170.719Z" fill="black"/>
<path d="M73.41 170.081V132.404H59.6803V125.379H94.8029V132.404H81.0731V170.081H73.41Z" fill="black"/>
<path d="M126.06 170.081L131.616 157.309L115.906 125.379H124.464L135.575 149.007H135.703L145.537 125.379H153.583L134.106 170.081H126.06Z" fill="black"/>
<path d="M192.558 170.655V167.846C179.466 167.846 171.803 160.183 171.803 148.432V147.027C171.803 135.405 179.594 127.614 192.558 127.614V124.804H200.221V127.614C213.312 127.614 220.975 135.277 220.975 147.027V148.432C220.975 160.055 213.184 167.846 200.221 167.846V170.655H192.558ZM212.929 147.027C212.929 139.173 208.395 134.639 200.221 134.639V160.821C208.522 160.821 212.929 156.415 212.929 148.432V147.027ZM179.85 148.432C179.85 156.287 184.384 160.821 192.558 160.821V134.639C184.256 134.639 179.85 139.045 179.85 147.027V148.432Z" fill="black"/>
<path d="M239.17 170.081L253.858 146.772L240.447 125.379H249.515L259.03 140.769L268.673 125.379H277.486L264.075 146.644L278.763 170.081H269.439L258.902 152.775L248.11 170.081H239.17Z" fill="black"/>
<path d="M302.096 170.081V125.379H309.759V163.056H330.194V125.379H337.858V163.056H342.647V179.66H335.367V170.081H302.096Z" fill="black"/>
<path d="M380.314 155.074C363.774 155.074 363.711 144.856 363.711 138.47V125.379H371.374V138.151C371.374 141.983 371.438 148.049 380.314 148.049C383.252 148.049 385.997 147.666 389.254 147.027V125.379H396.917V170.081H389.254V154.18C385.55 154.882 382.996 155.074 380.314 155.074Z" fill="black"/>
<path d="M423.731 170.081V125.379H431.394V163.056H445.443V125.379H453.106V163.056H467.155V125.379H474.818V170.081H423.731Z" fill="black"/>
<path d="M4.46437 232.344V187.642H12.1275V225.319H26.1766V187.642H33.8397V225.319H47.8887V187.642H55.5518V225.319H60.3413V241.922H53.0613V232.344H4.46437Z" fill="black"/>
<path d="M83.9593 232.344V187.642H91.6224V202.713H99.6048C111.163 202.713 116.528 208.077 116.528 217.592C116.528 226.852 111.036 232.344 99.6048 232.344H83.9593ZM91.6224 225.319H99.2855C105.671 225.319 108.481 222.509 108.481 217.592C108.481 212.675 105.544 209.737 99.2855 209.737H91.6224V225.319Z" fill="black"/>
<path d="M142.984 232.344V194.667H132.128V187.642H150.647V202.713H158.63C170.188 202.713 175.553 208.077 175.553 217.592C175.553 226.852 170.061 232.344 158.63 232.344H142.984ZM150.647 225.319H158.311C164.696 225.319 167.506 222.509 167.506 217.592C167.506 212.675 164.569 209.737 158.311 209.737H150.647V225.319Z" fill="black"/>
<path d="M215.135 232.982C204.535 232.982 198.213 226.66 196.935 217.656H205.365C206.642 222.765 209.835 225.958 215.135 225.958C221.777 225.958 226.055 221.679 226.502 212.93H209.707V206.417H226.502C225.991 198.307 221.968 194.028 215.135 194.028C209.707 194.028 206.514 197.285 205.237 201.691H196.935C198.213 193.389 204.599 187.003 215.135 187.003C226.758 187.003 234.612 194.858 234.612 208.332V211.015C234.612 225.191 226.822 232.982 215.135 232.982Z" fill="black"/>
<path d="M259.832 232.344V187.642H267.495V205.842H273.242C273.881 193.836 281.161 187.003 292.081 187.003C303.576 187.003 310.919 194.347 310.919 208.013V210.695C310.919 224.936 303.512 232.982 292.081 232.982C280.969 232.982 273.817 226.277 273.242 212.866H267.495V232.344H259.832ZM292.081 225.958C298.531 225.958 302.873 221.615 302.873 210.695V208.013C302.873 198.434 298.467 194.028 292.081 194.028C285.44 194.028 281.033 198.434 281.033 208.013V210.695C281.033 221.36 285.631 225.958 292.081 225.958Z" fill="black"/>
<path d="M332.953 232.344L342.979 214.335C337.168 212.228 334.231 207.63 334.231 201.627C334.231 193.006 339.595 187.642 351.153 187.642C354.729 187.642 364.053 187.642 366.799 187.642C366.799 195.88 366.799 223.85 366.799 232.344H359.136V215.612H350.195L341.51 232.344H332.953ZM351.473 208.588C353.388 208.588 357.795 208.588 359.136 208.588C359.136 206.225 359.136 198.051 359.136 194.667C357.795 194.667 353.324 194.667 351.473 194.667C345.214 194.667 342.277 197.604 342.277 201.627C342.277 205.906 344.959 208.588 351.473 208.588Z" fill="black"/>
<path d="M863.526 233.469V223.045H865.448C866.108 222.444 866.729 221.594 867.311 220.498C867.903 219.391 868.403 217.916 868.811 216.072C869.228 214.218 869.505 211.865 869.641 209.012L870.281 196.434H887.984V223.045H891.419V233.411H887.984V226.248H866.962V233.469H863.526ZM869.757 223.045H884.548V199.636H873.542L873.076 209.012C872.96 211.186 872.756 213.156 872.465 214.922C872.174 216.679 871.8 218.236 871.344 219.595C870.888 220.944 870.359 222.094 869.757 223.045Z" fill="black"/>
<path d="M902.989 226.772C901.572 226.772 900.286 226.505 899.131 225.972C897.976 225.428 897.059 224.647 896.38 223.628C895.7 222.599 895.361 221.357 895.361 219.901C895.361 218.62 895.613 217.581 896.118 216.786C896.622 215.98 897.297 215.349 898.141 214.893C898.986 214.437 899.917 214.097 900.936 213.874C901.965 213.641 902.999 213.457 904.037 213.321C905.396 213.146 906.498 213.015 907.342 212.928C908.196 212.831 908.817 212.67 909.205 212.447C909.603 212.224 909.802 211.836 909.802 211.283V211.166C909.802 209.73 909.409 208.614 908.623 207.818C907.847 207.022 906.667 206.624 905.085 206.624C903.445 206.624 902.159 206.983 901.228 207.701C900.296 208.42 899.641 209.186 899.262 210.002L896.001 208.837C896.584 207.478 897.36 206.42 898.331 205.663C899.311 204.897 900.378 204.363 901.533 204.062C902.698 203.751 903.843 203.596 904.969 203.596C905.687 203.596 906.512 203.683 907.444 203.858C908.385 204.023 909.293 204.368 910.166 204.892C911.049 205.416 911.782 206.207 912.364 207.265C912.947 208.323 913.238 209.739 913.238 211.516V226.248H909.802V223.22H909.628C909.395 223.705 909.006 224.225 908.463 224.778C907.919 225.331 907.196 225.802 906.294 226.19C905.391 226.578 904.29 226.772 902.989 226.772ZM903.513 223.686C904.872 223.686 906.017 223.419 906.949 222.885C907.89 222.351 908.599 221.662 909.074 220.818C909.56 219.974 909.802 219.086 909.802 218.154V215.009C909.657 215.184 909.336 215.344 908.841 215.49C908.356 215.626 907.793 215.747 907.153 215.854C906.522 215.951 905.906 216.038 905.304 216.116C904.712 216.184 904.231 216.242 903.863 216.291C902.97 216.407 902.135 216.596 901.359 216.858C900.592 217.111 899.971 217.494 899.495 218.008C899.029 218.513 898.796 219.202 898.796 220.076C898.796 221.269 899.238 222.172 900.121 222.783C901.014 223.385 902.145 223.686 903.513 223.686Z" fill="black"/>
<path d="M916.466 207.09V203.887H934.634V207.09H927.297V226.248H923.861V207.09H916.466Z" fill="black"/>
<path d="M945.065 226.772C943.648 226.772 942.362 226.505 941.207 225.972C940.052 225.428 939.135 224.647 938.456 223.628C937.776 222.599 937.437 221.357 937.437 219.901C937.437 218.62 937.689 217.581 938.194 216.786C938.698 215.98 939.373 215.349 940.217 214.893C941.062 214.437 941.993 214.097 943.012 213.874C944.041 213.641 945.075 213.457 946.113 213.321C947.472 213.146 948.573 213.015 949.418 212.928C950.272 212.831 950.893 212.67 951.281 212.447C951.679 212.224 951.878 211.836 951.878 211.283V211.166C951.878 209.73 951.485 208.614 950.699 207.818C949.922 207.022 948.743 206.624 947.161 206.624C945.521 206.624 944.235 206.983 943.304 207.701C942.372 208.42 941.717 209.186 941.338 210.002L938.077 208.837C938.66 207.478 939.436 206.42 940.406 205.663C941.387 204.897 942.454 204.363 943.609 204.062C944.774 203.751 945.919 203.596 947.045 203.596C947.763 203.596 948.588 203.683 949.52 203.858C950.461 204.023 951.369 204.368 952.242 204.892C953.125 205.416 953.858 206.207 954.44 207.265C955.023 208.323 955.314 209.739 955.314 211.516V226.248H951.878V223.22H951.703C951.47 223.705 951.082 224.225 950.539 224.778C949.995 225.331 949.272 225.802 948.37 226.19C947.467 226.578 946.366 226.772 945.065 226.772ZM945.589 223.686C946.948 223.686 948.093 223.419 949.025 222.885C949.966 222.351 950.675 221.662 951.15 220.818C951.635 219.974 951.878 219.086 951.878 218.154V215.009C951.733 215.184 951.412 215.344 950.917 215.49C950.432 215.626 949.869 215.747 949.229 215.854C948.598 215.951 947.981 216.038 947.38 216.116C946.788 216.184 946.307 216.242 945.938 216.291C945.046 216.407 944.211 216.596 943.435 216.858C942.668 217.111 942.047 217.494 941.571 218.008C941.105 218.513 940.872 219.202 940.872 220.076C940.872 221.269 941.314 222.172 942.197 222.783C943.09 223.385 944.221 223.686 945.589 223.686Z" fill="black"/>
<path d="M982.199 226.714C980.102 226.714 978.297 226.219 976.783 225.229C975.269 224.239 974.104 222.876 973.289 221.138C972.474 219.401 972.066 217.416 972.066 215.184C972.066 212.913 972.484 210.909 973.318 209.172C974.163 207.425 975.337 206.061 976.841 205.081C978.355 204.091 980.122 203.596 982.14 203.596C983.713 203.596 985.129 203.887 986.391 204.47C987.653 205.052 988.686 205.867 989.492 206.915C990.298 207.963 990.797 209.186 990.991 210.584H987.556C987.294 209.565 986.711 208.662 985.809 207.876C984.916 207.08 983.713 206.682 982.199 206.682C980.859 206.682 979.685 207.032 978.676 207.731C977.676 208.42 976.895 209.395 976.332 210.657C975.778 211.909 975.502 213.379 975.502 215.068C975.502 216.795 975.774 218.3 976.317 219.581C976.87 220.862 977.647 221.856 978.646 222.565C979.656 223.273 980.84 223.628 982.199 223.628C983.091 223.628 983.902 223.472 984.63 223.162C985.358 222.851 985.974 222.405 986.479 221.823C986.983 221.24 987.342 220.541 987.556 219.726H990.991C990.797 221.046 990.317 222.235 989.55 223.293C988.793 224.341 987.789 225.176 986.537 225.797C985.294 226.408 983.848 226.714 982.199 226.714Z" fill="black"/>
<path d="M1005.1 226.714C1003.08 226.714 1001.31 226.234 999.784 225.273C998.27 224.312 997.086 222.968 996.232 221.24C995.388 219.513 994.966 217.494 994.966 215.184C994.966 212.855 995.388 210.822 996.232 209.084C997.086 207.347 998.27 205.998 999.784 205.037C1001.31 204.076 1003.08 203.596 1005.1 203.596C1007.12 203.596 1008.88 204.076 1010.4 205.037C1011.92 205.998 1013.1 207.347 1013.95 209.084C1014.8 210.822 1015.23 212.855 1015.23 215.184C1015.23 217.494 1014.8 219.513 1013.95 221.24C1013.1 222.968 1011.92 224.312 1010.4 225.273C1008.88 226.234 1007.12 226.714 1005.1 226.714ZM1005.1 223.628C1006.63 223.628 1007.89 223.235 1008.88 222.449C1009.87 221.662 1010.61 220.629 1011.08 219.348C1011.56 218.067 1011.79 216.679 1011.79 215.184C1011.79 213.69 1011.56 212.297 1011.08 211.006C1010.61 209.715 1009.87 208.672 1008.88 207.876C1007.89 207.08 1006.63 206.682 1005.1 206.682C1003.56 206.682 1002.3 207.08 1001.31 207.876C1000.32 208.672 999.59 209.715 999.115 211.006C998.639 212.297 998.401 213.69 998.401 215.184C998.401 216.679 998.639 218.067 999.115 219.348C999.59 220.629 1000.32 221.662 1001.31 222.449C1002.3 223.235 1003.56 223.628 1005.1 223.628Z" fill="black"/>
<path d="M1019.08 220.541H1022.75C1022.82 221.551 1023.28 222.317 1024.11 222.842C1024.96 223.366 1026.06 223.628 1027.4 223.628C1028.78 223.628 1029.96 223.346 1030.94 222.783C1031.92 222.211 1032.41 221.289 1032.41 220.017C1032.41 219.27 1032.23 218.62 1031.86 218.067C1031.49 217.504 1030.97 217.067 1030.3 216.756C1029.63 216.446 1028.84 216.291 1027.93 216.291H1024.09V213.204H1027.93C1029.3 213.204 1030.31 212.894 1030.96 212.273C1031.62 211.651 1031.95 210.875 1031.95 209.943C1031.95 208.944 1031.59 208.143 1030.88 207.541C1030.18 206.93 1029.17 206.624 1027.87 206.624C1026.56 206.624 1025.47 206.92 1024.59 207.512C1023.72 208.094 1023.26 208.847 1023.21 209.769H1019.6C1019.64 208.565 1020.01 207.502 1020.71 206.58C1021.41 205.649 1022.36 204.921 1023.56 204.397C1024.76 203.863 1026.14 203.596 1027.7 203.596C1029.27 203.596 1030.63 203.873 1031.79 204.426C1032.95 204.969 1033.85 205.712 1034.48 206.653C1035.12 207.585 1035.44 208.643 1035.44 209.827C1035.44 211.089 1035.09 212.108 1034.38 212.884C1033.67 213.66 1032.78 214.214 1031.71 214.544V214.777C1032.56 214.835 1033.29 215.106 1033.91 215.592C1034.54 216.067 1035.03 216.693 1035.38 217.47C1035.73 218.236 1035.91 219.086 1035.91 220.017C1035.91 221.376 1035.54 222.56 1034.81 223.569C1034.09 224.569 1033.09 225.346 1031.82 225.899C1030.54 226.442 1029.09 226.714 1027.46 226.714C1025.88 226.714 1024.46 226.457 1023.21 225.942C1021.96 225.418 1020.96 224.695 1020.23 223.773C1019.5 222.842 1019.12 221.764 1019.08 220.541Z" fill="black"/>
<path d="M1038.34 232.654V223.045H1040.21C1040.66 222.57 1041.06 222.055 1041.39 221.502C1041.72 220.949 1042 220.294 1042.25 219.537C1042.5 218.77 1042.71 217.839 1042.89 216.742C1043.06 215.635 1043.22 214.301 1043.35 212.738L1044.11 203.887H1058.32V223.045H1061.75V232.654H1058.32V226.248H1041.78V232.654H1038.34ZM1044.11 223.045H1054.88V207.09H1047.31L1046.73 212.738C1046.49 215.077 1046.19 217.12 1045.83 218.867C1045.47 220.614 1044.9 222.007 1044.11 223.045Z" fill="black"/>
<path d="M1072.89 226.772C1071.48 226.772 1070.19 226.505 1069.04 225.972C1067.88 225.428 1066.96 224.647 1066.28 223.628C1065.61 222.599 1065.27 221.357 1065.27 219.901C1065.27 218.62 1065.52 217.581 1066.02 216.786C1066.53 215.98 1067.2 215.349 1068.05 214.893C1068.89 214.437 1069.82 214.097 1070.84 213.874C1071.87 213.641 1072.9 213.457 1073.94 213.321C1075.3 213.146 1076.4 213.015 1077.25 212.928C1078.1 212.831 1078.72 212.67 1079.11 212.447C1079.51 212.224 1079.71 211.836 1079.71 211.283V211.166C1079.71 209.73 1079.31 208.614 1078.53 207.818C1077.75 207.022 1076.57 206.624 1074.99 206.624C1073.35 206.624 1072.06 206.983 1071.13 207.701C1070.2 208.42 1069.55 209.186 1069.17 210.002L1065.91 208.837C1066.49 207.478 1067.27 206.42 1068.24 205.663C1069.22 204.897 1070.28 204.363 1071.44 204.062C1072.6 203.751 1073.75 203.596 1074.87 203.596C1075.59 203.596 1076.42 203.683 1077.35 203.858C1078.29 204.023 1079.2 204.368 1080.07 204.892C1080.95 205.416 1081.69 206.207 1082.27 207.265C1082.85 208.323 1083.14 209.739 1083.14 211.516V226.248H1079.71V223.22H1079.53C1079.3 223.705 1078.91 224.225 1078.37 224.778C1077.82 225.331 1077.1 225.802 1076.2 226.19C1075.3 226.578 1074.19 226.772 1072.89 226.772ZM1073.42 223.686C1074.78 223.686 1075.92 223.419 1076.85 222.885C1077.8 222.351 1078.5 221.662 1078.98 220.818C1079.46 219.974 1079.71 219.086 1079.71 218.154V215.009C1079.56 215.184 1079.24 215.344 1078.75 215.49C1078.26 215.626 1077.7 215.747 1077.06 215.854C1076.43 215.951 1075.81 216.038 1075.21 216.116C1074.62 216.184 1074.14 216.242 1073.77 216.291C1072.87 216.407 1072.04 216.596 1071.26 216.858C1070.5 217.111 1069.88 217.494 1069.4 218.008C1068.93 218.513 1068.7 219.202 1068.7 220.076C1068.7 221.269 1069.14 222.172 1070.03 222.783C1070.92 223.385 1072.05 223.686 1073.42 223.686Z" fill="black"/>
<path d="M1104.38 213.495V216.698H1092.03V213.495H1104.38ZM1092.85 203.887V226.248H1089.41V203.887H1092.85ZM1107 203.887V226.248H1103.56V203.887H1107Z" fill="black"/>
<path d="M1116.71 221.182L1127.48 203.887H1131.44V226.248H1128.01V208.953L1117.29 226.248H1113.27V203.887H1116.71V221.182Z" fill="black"/>
<path d="M1151.19 226.248V207.032H1145.25C1143.91 207.032 1142.85 207.342 1142.09 207.963C1141.32 208.585 1140.94 209.439 1140.94 210.526C1140.94 211.593 1141.28 212.433 1141.97 213.044C1142.67 213.656 1143.63 213.961 1144.84 213.961H1152.06V217.164H1144.84C1143.33 217.164 1142.02 216.897 1140.92 216.363C1139.83 215.83 1138.98 215.068 1138.39 214.078C1137.8 213.078 1137.5 211.894 1137.5 210.526C1137.5 209.147 1137.81 207.963 1138.43 206.973C1139.05 205.984 1139.94 205.222 1141.1 204.688C1142.26 204.154 1143.65 203.887 1145.25 203.887H1154.45V226.248H1151.19ZM1136.28 226.248L1142.63 215.126H1146.35L1140.01 226.248H1136.28Z" fill="black"/>
<path d="M1193.64 233.434V226.65L1208.1 212.762C1213.8 207.322 1215.66 204.762 1215.66 201.754C1215.66 197.786 1213.03 195.162 1208.68 195.162C1204.33 195.162 1201.7 197.786 1201.7 202.394H1193.64C1193.64 193.626 1199.34 187.994 1208.68 187.994C1218.09 187.994 1223.72 193.626 1223.72 201.754C1223.72 206.81 1220.58 211.226 1213.74 217.498L1203.69 226.65H1223.72V233.434H1193.64ZM1249.31 234.074C1239.39 234.074 1233.31 228.058 1233.31 212.698V209.37C1233.31 194.138 1239.45 187.994 1249.31 187.994C1259.29 187.994 1265.31 194.01 1265.31 209.37V212.698C1265.31 227.93 1259.16 234.074 1249.31 234.074ZM1249.31 226.906C1254.23 226.906 1257.24 223.962 1257.24 212.698V209.37C1257.24 198.234 1254.11 195.162 1249.31 195.162C1244.31 195.162 1241.37 198.106 1241.37 209.37V212.698C1241.37 223.834 1244.44 226.906 1249.31 226.906ZM1281.65 233.434V196.57L1272.69 202.522V194.65L1281.65 188.634H1289.33V233.434H1281.65ZM1315.86 234.074C1308.12 234.074 1303.38 229.338 1302.1 222.874H1309.98C1310.94 225.05 1312.79 226.906 1316.18 226.906C1321.18 226.906 1324.44 223.77 1324.76 214.81C1322.39 217.306 1319.19 218.65 1315.54 218.65C1306.39 218.65 1300.82 213.082 1300.82 203.738V202.97C1300.82 194.138 1306.97 187.994 1316.18 187.994C1325.91 187.994 1332.18 194.266 1332.18 207.45V210.778C1332.18 227.674 1325.78 234.074 1315.86 234.074ZM1308.89 203.738C1308.89 208.538 1311.83 211.482 1316.18 211.482C1321.18 211.482 1324.12 208.538 1324.12 203.738V202.97C1324.12 198.106 1321.18 195.162 1316.18 195.162C1311.83 195.162 1308.89 198.106 1308.89 202.97V203.738Z" fill="black"/>
<line x1="386.901" y1="236.592" x2="1155.71" y2="236.592" stroke="black"/>
</svg>
