<svg width="1320" height="207" viewBox="0 0 1320 207" fill="none" xmlns="http://www.w3.org/2000/svg">
<path d="M1.27281 57.9219L17.2728 13.1219H26.2328L42.2328 57.9219H34.0408L30.3288 46.7219H12.7288L8.95281 57.9219H1.27281ZM15.0968 39.6819H28.0248L21.6888 20.4819H21.5608L15.0968 39.6819ZM60.1628 57.9219V13.1219H75.5228C87.0428 13.1219 91.5228 17.6019 91.5228 25.2819C91.5228 29.3139 89.6028 32.5139 85.8268 34.5619V34.6899C90.3708 36.6099 92.8028 40.1299 92.8028 44.9939C92.8028 53.4419 88.3228 57.9219 76.8028 57.9219H60.1628ZM75.2028 20.1619H67.8428V31.6819H75.2028C81.4108 31.6819 83.4588 29.6339 83.4588 25.9219C83.4588 22.2099 81.4108 20.1619 75.2028 20.1619ZM76.4828 38.0819H67.8428V50.8819H76.4828C82.6908 50.8819 84.7388 48.8339 84.7388 44.4819C84.7388 40.1299 82.6908 38.0819 76.4828 38.0819ZM130.57 58.5619C118.858 58.5619 111.05 50.7539 111.05 36.5459V33.8579C111.05 20.3539 118.922 12.4819 130.57 12.4819C141.13 12.4819 147.53 18.8819 148.81 27.2019H140.49C139.21 22.7219 136.01 19.5219 130.57 19.5219C123.786 19.5219 119.114 24.1939 119.114 33.8579V36.5459C119.114 46.7219 123.914 51.5219 130.57 51.5219C135.882 51.5219 139.082 48.3219 140.362 43.2019H148.81C147.53 52.2259 141.194 58.5619 130.57 58.5619ZM168.325 57.9219V13.1219H183.365C197.061 13.1219 204.485 20.5459 204.485 33.7299V36.6739C204.485 50.3699 196.933 57.9219 183.365 57.9219H168.325ZM176.005 50.8819H183.045C192.325 50.8819 196.421 46.7859 196.421 36.6739V33.7299C196.421 24.3859 192.197 20.1619 183.045 20.1619H176.005V50.8819ZM224.625 57.9219V13.1219H253.425V20.1619H232.305V31.3619H249.585V38.4019H232.305V50.8819H253.425V57.9219H224.625ZM273.238 57.9219V13.1219H302.038V20.1619H280.918V32.0019H298.198V39.0419H280.918V57.9219H273.238ZM337.583 58.5619C325.871 58.5619 318.063 50.7539 318.063 36.6099V33.7939C318.063 20.3539 325.935 12.4819 337.583 12.4819C348.463 12.4819 354.863 18.8819 356.143 27.2019H347.823C346.543 22.8499 343.215 19.5219 337.583 19.5219C330.799 19.5219 326.127 24.1939 326.127 33.7939V36.6099C326.127 46.7219 330.927 51.5219 337.583 51.5219C344.559 51.5219 348.335 48.5779 349.039 40.5779H337.583V34.1779H356.463V36.8019C356.463 51.4579 349.359 58.5619 337.583 58.5619ZM376.65 57.9219V13.1219H384.33V31.3619H405.45V13.1219H413.13V57.9219H405.45V38.4019H384.33V57.9219H376.65ZM435.208 57.9219V13.1219H442.888V57.9219H435.208ZM462.728 58.5619C453.896 58.5619 448.648 53.3139 448.008 43.2019H455.688C456.328 49.2819 458.568 51.5219 462.728 51.5219C469.64 51.5219 469.768 45.6979 469.768 41.9219V13.1219H477.448V42.2419C477.448 45.3779 477.32 58.5619 462.728 58.5619ZM5.11281 127.922V83.1219H12.7928V104.69L29.6888 83.1219H39.0328L23.4168 102.962L40.3128 127.922H30.7128L18.1048 108.786L12.7928 115.378V127.922H5.11281ZM58.5378 127.922V83.1219H66.2178V120.882H86.0578V127.922H58.5378ZM104.275 127.922V83.1219H115.923L125.907 107.954H126.035L136.019 83.1219H147.155V127.922H139.475V91.7619H139.347L129.555 116.082H121.875L112.083 91.7619H111.955V127.922H104.275ZM168.888 127.922V83.1219H179.768L197.56 117.042H197.688V83.1219H205.368V127.922H195.128L176.696 92.7219H176.568V127.922H168.888ZM245.365 128.562C233.333 128.562 225.525 120.754 225.525 106.546V103.858C225.525 90.3539 233.397 82.4819 245.365 82.4819C257.397 82.4819 265.205 90.2899 265.205 103.858V106.546C265.205 120.69 257.333 128.562 245.365 128.562ZM245.365 121.522C252.469 121.522 257.141 116.914 257.141 106.546V103.858C257.141 94.3219 252.341 89.5219 245.365 89.5219C238.197 89.5219 233.589 94.1299 233.589 103.858V106.546C233.589 116.786 238.325 121.522 245.365 121.522ZM285.363 127.922V83.1219H301.043C312.627 83.1219 318.003 88.4979 318.003 97.9059C318.003 107.186 312.371 112.818 301.043 112.818H293.043V127.922H285.363ZM300.723 90.1619H293.043V105.778H300.723C307.251 105.778 309.939 103.09 309.939 97.9059C309.939 93.1059 306.995 90.1619 300.723 90.1619ZM366.426 131.122L363.354 126.962C360.858 128.05 357.978 128.562 354.778 128.562C342.746 128.562 334.938 120.754 334.938 106.546V103.858C334.938 90.3539 342.81 82.4819 354.778 82.4819C366.81 82.4819 374.618 90.2899 374.618 103.858V106.546C374.618 113.842 372.506 119.538 368.794 123.25L374.618 131.122H366.426ZM354.778 121.522C356.25 121.522 357.658 121.33 358.938 120.882L353.498 113.522H361.69L364.122 116.85C365.658 114.418 366.554 111.026 366.554 106.546V103.858C366.554 94.3219 361.754 89.5219 354.778 89.5219C347.61 89.5219 343.002 94.1299 343.002 103.858V106.546C343.002 116.786 347.738 121.522 354.778 121.522ZM394.775 127.922V83.1219H410.455C422.039 83.1219 427.415 88.4979 427.415 97.1379C427.415 102.962 424.663 107.506 419.159 109.682L428.695 127.922H420.119L411.927 111.09C411.031 111.154 410.967 111.154 410.455 111.154H402.455V127.922H394.775ZM402.455 104.114H410.135C416.663 104.114 419.351 101.426 419.351 97.1379C419.351 93.1059 416.407 90.1619 410.135 90.1619H402.455V104.114ZM462.63 128.562C451.302 128.562 445.67 122.93 445.03 113.202H453.222C453.67 118.834 456.486 121.522 462.63 121.522C468.454 121.522 470.886 119.154 470.886 115.634C470.886 105.714 445.67 112.178 445.67 95.0259C445.67 87.9219 451.11 82.4819 461.67 82.4819C472.614 82.4819 477.99 87.8579 478.63 97.2019H470.438C469.99 92.0819 467.43 89.5219 461.67 89.5219C456.038 89.5219 453.734 91.8259 453.734 95.0899C453.734 105.522 478.95 98.1619 478.95 115.698C478.95 123.25 473.638 128.562 462.63 128.562ZM15.3528 197.922V160.162H1.59281V153.122H36.7928V160.162H23.0328V197.922H15.3528ZM72.6378 198.562C61.5018 198.562 54.7178 191.778 54.7178 180.002V153.122H62.3978V179.682C62.3978 187.554 66.3658 191.522 72.6378 191.522C79.0378 191.522 82.8778 187.682 82.8778 179.682V153.122H90.5578V180.002C90.5578 191.65 83.6458 198.562 72.6378 198.562ZM124.825 197.922L108.185 153.122H116.377L129.433 188.962H129.497L141.465 153.122H149.145L133.785 197.922H124.825ZM176.148 197.922L164.5 153.122H172.564L181.396 188.962H181.524L189.268 153.122H199.252L207.892 188.962H208.02L216.468 153.122H224.02L213.012 197.922H203.028L194.324 162.082H194.196L186.132 197.922H176.148ZM239.043 197.922L253.763 174.562L240.323 153.122H249.411L258.947 168.546L268.611 153.122H277.443L264.003 174.434L278.723 197.922H269.379L258.819 180.578L248.003 197.922H239.043ZM310.108 197.922V182.882L293.148 153.122H301.852L314.14 174.946L325.148 153.122H333.468L317.788 182.882V197.922H310.108ZM349.493 197.922V190.882L373.045 160.29V160.162H350.133V153.122H382.133V160.162L358.581 190.754V190.882H382.133V197.922H349.493Z" fill="black"/>
<path d="M879.526 190.653V163.627H882.229V175.518H886.476L895.279 163.627H898.445L888.715 176.677L899.217 190.653H895.896L886.476 177.989H882.229V190.653H879.526Z" fill="black"/>
<path d="M912.353 190.923C907.179 190.923 903.859 187.603 903.859 181.657V180.345C903.859 174.437 907.218 171.078 912.353 171.078C917.526 171.078 920.847 174.399 920.847 180.345V181.657C920.847 187.564 917.488 190.923 912.353 190.923ZM912.353 188.607C915.866 188.607 918.221 186.252 918.221 181.657V180.345C918.221 175.789 915.828 173.395 912.353 173.395C908.839 173.395 906.484 175.75 906.484 180.345V181.657C906.484 186.213 908.878 188.607 912.353 188.607Z" fill="black"/>
<path d="M925.288 190.923V188.607H925.867C929.072 188.607 929.149 184.09 929.149 176.754V171.349H942.276V190.653H939.728V173.665H931.697V176.754C931.697 185.055 931.62 190.923 925.867 190.923H925.288Z" fill="black"/>
<path d="M949.416 181.773V179.457H962.929V181.773H949.416Z" fill="black"/>
<path d="M970.079 190.653V171.349H977.415C981.893 171.349 983.978 173.434 983.978 176.638C983.978 178.337 983.09 179.804 981.546 180.576V180.653C983.631 181.464 984.75 183.086 984.75 185.132C984.75 188.568 982.665 190.653 978.187 190.653H970.079ZM981.353 176.677C981.353 174.785 980.233 173.665 977.222 173.665H972.627V179.727H977.222C980.233 179.727 981.353 178.607 981.353 176.677ZM982.125 185.093C982.125 183.009 981.005 181.889 977.994 181.889H972.627V188.337H977.994C981.005 188.337 982.125 187.217 982.125 185.093Z" fill="black"/>
<path d="M999.403 190.923C994.23 190.923 990.91 187.603 990.91 181.657V180.345C990.91 174.437 994.269 171.078 999.403 171.078C1004.58 171.078 1007.9 174.399 1007.9 180.345V181.657C1007.9 187.564 1004.54 190.923 999.403 190.923ZM999.403 188.607C1002.92 188.607 1005.27 186.252 1005.27 181.657V180.345C1005.27 175.789 1002.88 173.395 999.403 173.395C995.89 173.395 993.535 175.75 993.535 180.345V181.657C993.535 186.213 995.929 188.607 999.403 188.607Z" fill="black"/>
<path d="M1025.07 190.653L1029.59 182.931C1026.96 182.043 1025.84 180.151 1025.84 177.41C1025.84 173.588 1028.08 171.349 1033.56 171.349H1039.74V190.653H1037.19V183.472H1033.56C1033.06 183.472 1032.56 183.472 1032.1 183.433L1028.01 190.653H1025.07ZM1028.47 177.41C1028.47 179.843 1029.78 181.155 1033.76 181.155H1037.19V173.665H1033.76C1029.78 173.665 1028.47 174.978 1028.47 177.41Z" fill="black"/>
<path d="M1054.22 190.923C1049.24 190.923 1046.88 188.568 1046.49 184.862H1049.12C1049.51 187.294 1050.82 188.607 1054.22 188.607C1057.61 188.607 1058.93 187.294 1058.93 185.248C1058.93 183.279 1057.61 181.966 1054.22 181.966H1052.09V179.65H1054.22C1057.11 179.65 1058.35 178.414 1058.35 176.561C1058.35 174.63 1057.11 173.395 1054.22 173.395C1051.32 173.395 1050.08 174.63 1049.7 176.754H1047.07C1047.46 173.356 1049.74 171.078 1054.22 171.078C1058.69 171.078 1060.97 173.356 1060.97 176.561C1060.97 178.375 1060.12 179.688 1058.46 180.653V180.731C1060.51 181.58 1061.55 183.124 1061.55 185.248C1061.55 188.568 1059.2 190.923 1054.22 190.923Z" fill="black"/>
<path d="M1087.2 190.653V171.349H1089.75V190.653H1087.2ZM1068.9 190.653V171.349H1071.45V178.298H1075.85C1080.79 178.298 1083.19 180.692 1083.19 184.476C1083.19 188.221 1080.75 190.653 1075.85 190.653H1068.9ZM1075.66 180.615H1071.45V188.337H1075.66C1079.17 188.337 1080.56 186.947 1080.56 184.476C1080.56 182.043 1079.13 180.615 1075.66 180.615Z" fill="black"/>
<path d="M1098.24 190.653V171.349H1100.79V179.457H1104.26L1109.9 171.349H1112.91L1106.31 180.538L1113.69 190.653H1110.6L1104.26 181.773H1100.79V190.653H1098.24Z" fill="black"/>
<path d="M1126.62 190.923C1121.45 190.923 1118.13 187.603 1118.13 181.657V180.345C1118.13 174.437 1121.49 171.078 1126.62 171.078C1131.8 171.078 1135.12 174.399 1135.12 180.345V181.657C1135.12 187.564 1131.76 190.923 1126.62 190.923ZM1126.62 188.607C1130.14 188.607 1132.49 186.252 1132.49 181.657V180.345C1132.49 175.789 1130.1 173.395 1126.62 173.395C1123.11 173.395 1120.76 175.75 1120.76 180.345V181.657C1120.76 186.213 1123.15 188.607 1126.62 188.607Z" fill="black"/>
<path d="M1142.45 190.653V171.349H1149.78C1154.26 171.349 1156.34 173.434 1156.34 176.638C1156.34 178.337 1155.46 179.804 1153.91 180.576V180.653C1156 181.464 1157.12 183.086 1157.12 185.132C1157.12 188.568 1155.03 190.653 1150.55 190.653H1142.45ZM1153.72 176.677C1153.72 174.785 1152.6 173.665 1149.59 173.665H1144.99V179.727H1149.59C1152.6 179.727 1153.72 178.607 1153.72 176.677ZM1154.49 185.093C1154.49 183.009 1153.37 181.889 1150.36 181.889H1144.99V188.337H1150.36C1153.37 188.337 1154.49 187.217 1154.49 185.093Z" fill="black"/>
<path d="M1228.6 206.447V169.583L1219.64 175.535V167.663L1228.6 161.647H1236.28V206.447H1228.6ZM1246.82 206.447V199.663L1261.28 185.775C1266.98 180.335 1268.84 177.775 1268.84 174.767C1268.84 170.799 1266.21 168.175 1261.86 168.175C1257.51 168.175 1254.88 170.799 1254.88 175.407H1246.82C1246.82 166.639 1252.52 161.007 1261.86 161.007C1271.27 161.007 1276.9 166.639 1276.9 174.767C1276.9 179.823 1273.76 184.239 1266.92 190.511L1256.87 199.663H1276.9V206.447H1246.82ZM1283.93 197.039V190.255L1302.62 161.647H1312.73V190.255H1317.85V197.039H1312.73V206.447H1305.05V197.039H1283.93ZM1292.18 190.255H1305.05V170.159L1292.18 190.255Z" fill="black"/>
<line x1="386.902" y1="198.838" x2="1155.71" y2="198.838" stroke="black"/>
</svg>
